<svg width="397" height="542" viewBox="0 0 397 542" fill="none" xmlns="http://www.w3.org/2000/svg">
<path d="M92.8707 351.294C89.1961 332.87 103.742 315.868 122.513 316.647L210.493 320.299C234.674 321.302 247.06 349.737 231.326 368.127L160.569 450.829C144.836 469.219 114.828 461.383 110.094 437.649L92.8707 351.294Z" fill="#ECB22E"/>
<path d="M164.267 190.209C139.386 188.452 128.185 158.186 145.927 140.654L220.523 66.9409C235.511 52.1306 260.79 57.7424 268.104 77.5033L298.119 158.606C305.432 178.367 289.897 199.084 268.878 197.599L164.267 190.209Z" fill="#E01E5A"/>
<path d="M205.751 239.691C210.289 256.471 196.743 272.646 179.427 271.123L93.4436 263.559C73.3102 261.788 63.4911 238.098 76.4679 222.604L139.915 146.845C152.892 131.35 177.937 136.86 183.214 156.37L205.751 239.691Z" fill="#2EB670"/>
<path d="M175.518 256.192C169.651 236.947 185.393 217.979 205.391 220.199L295.598 230.213C317.751 232.672 328.29 258.772 314.054 275.924L250.311 352.728C236.076 369.88 208.481 364.331 201.982 343.01L175.518 256.192Z" fill="#36C5F0"/>
</svg>
